<?xml version="1.0" encoding="UTF-8"?>
<svg id="Layer_1" xmlns="http://www.w3.org/2000/svg" viewBox="0 0 512 512" width="1em" height="1em" fill="currentColor">
  <path d="M0,63.87C0,40.27,19.07,21.2,42.67,21.2h426.67c23.6,0,42.67,19.07,42.67,42.67s-19.07,42.67-42.67,42.67v298.67c23.6,0,42.67,19.07,42.67,42.67s-19.07,42.67-42.67,42.67H42.67C19.07,490.53,0,471.47,0,447.87s19.07-42.67,42.67-42.67V106.53C19.07,106.53,0,87.47,0,63.87ZM310.53,110.13c-8-5.33-18.53-4.8-25.73,1.47l-149.33,128c-6.8,5.87-9.2,15.2-6.13,23.6s11.07,13.87,20,13.87h77.07l-33.33,99.87c-3.07,9.07.4,19.07,8.4,24.4,8,5.33,18.53,4.8,25.73-1.47l149.33-128c6.8-5.87,9.2-15.2,6.13-23.6-3.07-8.4-11.07-13.87-20-13.87h-77.07l33.33-99.87c3.07-9.07-.4-19.07-8.4-24.4h0Z"/>
</svg>