<?xml version="1.0" encoding="UTF-8"?>
<svg id="Layer_1" xmlns="http://www.w3.org/2000/svg" viewBox="0 0 688.45 478.14">
  <path d="M392.82.08c94.99,0,189.98,0,284.98,0,9.44,0,10.58,1.16,10.58,10.7,0,119.99-.02,239.98.08,359.97,0,5.03-1.36,8.73-5,12.34-30.06,29.8-59.98,59.74-89.8,89.79-3.7,3.73-7.49,5.26-12.75,5.26-190.15-.11-380.3-.09-570.45-.09-8.93,0-10.37-1.47-10.37-10.5C.09,347.39.12,227.23,0,107.08c0-4.9,1.44-8.43,4.91-11.87,30.39-30.18,60.66-60.47,90.86-90.84C98.83,1.28,101.99,0,106.34,0c95.49.1,190.98.08,286.48.08ZM574.8,447.17c27.79-27.8,55.11-55.14,82.93-82.98v-135.66c5.84-5.48,12.03-11.28,17.81-16.69V12.96H170.42c-5.34,5.7-11.14,11.89-16.9,18.03h-39.86c-27.9,27.87-55.13,55.07-82.8,82.7v135.8c-5.84,5.46-12.03,11.26-17.76,16.62v198.91h505.06c5.45-5.62,11.36-11.7,17.32-17.84h39.31Z"/>
</svg>