<?xml version="1.0" encoding="UTF-8"?><svg id="Layer_1" xmlns="http://www.w3.org/2000/svg" viewBox="0 0 384 512" width="1em" height="1em" fill="currentColor"><circle cx="192.03" cy="256.03" r="42.24" transform="translate(-38.53 34.07) rotate(-9.22)"/><path d="M320,0H64C28.7,0,0,28.7,0,64V448c0,35.3,28.7,64,64,64H320c35.3,0,64-28.7,64-64V64C384,28.7,355.3,0,320,0Zm-26.64,256.03c0,4.54-.32,9.03-.9,13.41l22.86,20.81c3.64,3.27,5.07,8.4,3.38,12.99-2.32,6.28-5.12,12.3-8.34,18.11l-2.48,4.28c-3.49,5.81-7.39,11.3-11.67,16.48-3.12,3.8-8.29,5.07-12.94,3.59l-29.41-9.35c-7.08,5.44-14.89,9.98-23.23,13.41l-6.6,30.15c-1.06,4.81-4.75,8.61-9.61,9.4-7.29,1.21-14.79,1.85-22.44,1.85s-15.16-.63-22.44-1.85c-4.86-.79-8.55-4.59-9.61-9.4l-6.6-30.15c-8.34-3.43-16.16-7.97-23.23-13.41l-29.36,9.4c-4.65,1.48-9.82,.16-12.94-3.59-4.28-5.17-8.18-10.67-11.67-16.48l-2.48-4.28c-3.22-5.81-6.02-11.83-8.34-18.11-1.69-4.59-.26-9.72,3.38-12.99l22.86-20.81c-.58-4.44-.9-8.92-.9-13.47s.32-9.03,.9-13.41l-22.86-20.81c-3.64-3.27-5.07-8.4-3.38-12.99,2.32-6.28,5.12-12.3,8.34-18.11l2.48-4.28c3.49-5.81,7.39-11.3,11.67-16.48,3.12-3.8,8.29-5.07,12.94-3.59l29.41,9.35c7.08-5.44,14.89-9.98,23.23-13.41l6.6-30.15c1.06-4.81,4.75-8.61,9.61-9.4,7.29-1.27,14.79-1.9,22.44-1.9s15.16,.63,22.44,1.85c4.86,.79,8.55,4.59,9.61,9.4l6.6,30.15c8.34,3.43,16.16,7.97,23.23,13.41l29.41-9.35c4.65-1.48,9.82-.16,12.94,3.59,4.28,5.17,8.18,10.67,11.67,16.48l2.48,4.28c3.22,5.81,6.02,11.83,8.34,18.11l-.05,.05c1.69,4.59,.26,9.72-3.38,12.99l-22.86,20.81c.58,4.38,.9,8.87,.9,13.41Z"/></svg>