<?xml version="1.0" encoding="UTF-8"?><svg id="Layer_1" xmlns="http://www.w3.org/2000/svg" viewBox="0 0 384 512" width="1em" height="1em" fill="currentColor"><path d="M208,175.97h-64v64h64c17.7,0,32-14.3,32-32s-14.3-32-32-32Z"/><path d="M320,0H64C28.7,0,0,28.7,0,64V448c0,35.3,28.7,64,64,64H320c35.3,0,64-28.7,64-64V64C384,28.7,355.3,0,320,0Zm-34.2,350.07c5.5,12.1,.1,26.3-11.9,31.8s-26.3,.1-31.8-11.9l-37.2-82h-60.9v72c0,13.3-10.7,24-24,24s-24-10.7-24-24V151.97c0-13.3,10.7-24,24-24h88c44.2,0,80,35.8,80,80,0,28-14.4,52.7-36.3,67l34.1,75.1Z"/></svg>